<svg xmlns="http://www.w3.org/2000/svg" viewBox="0 0 512 512" width="512" height="512">
  <defs>
    <linearGradient id="ku-bg" x1="0" y1="0" x2="0" y2="1">
      <stop offset="0%" stop-color="#8f2d47"/>
      <stop offset="55%" stop-color="#7a1e35"/>
      <stop offset="100%" stop-color="#4d1220"/>
    </linearGradient>
    <linearGradient id="ku-top" x1="0" y1="0" x2="0" y2="1">
      <stop offset="0%" stop-color="#a44560"/>
      <stop offset="100%" stop-color="#8f2d47"/>
    </linearGradient>
  </defs>

  <!-- Weinrote Kachel mit Verlauf, wie das App-Icon -->
  <rect x="16" y="16" width="480" height="480" rx="100" ry="100" fill="url(#ku-bg)"/>
  <path d="M 116 16 H 396 A 100 100 0 0 1 496 116 V 240 H 16 V 116 A 100 100 0 0 1 116 16 Z" fill="url(#ku-top)" opacity="0.55"/>

  <!-- Aktenordner-Reiter oben rechts -->
  <path d="M 108 152 L 226 152 L 258 188 L 404 188 L 404 216 L 108 216 Z" fill="#ffffff"/>

  <!-- Aktenordner-Korpus -->
  <rect x="108" y="204" width="296" height="240" rx="14" ry="14" fill="#ffffff"/>

  <!-- Register-Trennblaetter (Reiter innen) -->
  <rect x="150" y="196" width="44" height="20" rx="4" fill="#f0d5db"/>
  <rect x="222" y="196" width="44" height="20" rx="4" fill="#f0d5db"/>
  <rect x="294" y="196" width="44" height="20" rx="4" fill="#f0d5db"/>

  <!-- Angedeutete Zeilen -->
  <rect x="152" y="272" width="208" height="10" rx="5" fill="#7a1e35"/>
  <rect x="152" y="308" width="208" height="10" rx="5" fill="#7a1e35"/>
  <rect x="152" y="344" width="208" height="10" rx="5" fill="#7a1e35"/>
  <rect x="152" y="380" width="140" height="10" rx="5" fill="#7a1e35"/>
</svg>
